<?xml version="1.0" encoding="UTF-8" standalone="no"?>
<!-- Created with Inkscape (http://www.inkscape.org/) -->

<svg
   xmlns:dc="http://purl.org/dc/elements/1.1/"
   xmlns:cc="http://creativecommons.org/ns#"
   xmlns:rdf="http://www.w3.org/1999/02/22-rdf-syntax-ns#"
   xmlns:svg="http://www.w3.org/2000/svg"
   xmlns="http://www.w3.org/2000/svg"
   xmlns:sodipodi="http://sodipodi.sourceforge.net/DTD/sodipodi-0.dtd"
   xmlns:inkscape="http://www.inkscape.org/namespaces/inkscape"
   width="68.49765mm"
   height="8.4772501mm"
   viewBox="0 0 68.497652 8.4772501"
   version="1.1"
   id="svg8"
   inkscape:version="0.92.4 (5da689c313, 2019-01-14)"
   sodipodi:docname="logo-short.svg">
  <defs
     id="defs2" />
  <sodipodi:namedview
     id="base"
     pagecolor="#ffffff"
     bordercolor="#666666"
     borderopacity="1.0"
     inkscape:pageopacity="0.0"
     inkscape:pageshadow="2"
     inkscape:zoom="3.959798"
     inkscape:cx="52.056865"
     inkscape:cy="0.89274889"
     inkscape:document-units="mm"
     inkscape:current-layer="flowRoot10"
     showgrid="false"
     inkscape:window-width="3840"
     inkscape:window-height="2096"
     inkscape:window-x="0"
     inkscape:window-y="27"
     inkscape:window-maximized="1"
     fit-margin-top="0"
     fit-margin-left="0"
     fit-margin-right="0"
     fit-margin-bottom="0" />
  <metadata
     id="metadata5">
    <rdf:RDF>
      <cc:Work
         rdf:about="">
        <dc:format>image/svg+xml</dc:format>
        <dc:type
           rdf:resource="http://purl.org/dc/dcmitype/StillImage" />
        <dc:title></dc:title>
      </cc:Work>
    </rdf:RDF>
  </metadata>
  <g
     inkscape:label="Layer 1"
     inkscape:groupmode="layer"
     id="layer1"
     transform="translate(-50.975741,-114.80657)">
    <g
       aria-label="PROTOSPACE PORTAL"
       transform="scale(0.26458333)"
       style="font-style:normal;font-weight:normal;font-size:40px;line-height:1.25;font-family:sans-serif;letter-spacing:0px;word-spacing:0px;fill:#000000;fill-opacity:1;stroke:none"
       id="flowRoot10">
      <path
         d="m 204.12422,465.9546 q -2.56,0 -4.84,-0.76 -2.24,-0.8 -3.92,-2.2 -1.68,-1.44 -2.52,-3.28 -0.36,-0.76 0,-1.4 0.4,-0.68 1.32,-0.88 0.64,-0.16 1.28,0.2 0.68,0.32 1,1 0.52,1.08 1.64,1.96 1.12,0.84 2.68,1.36 1.6,0.52 3.36,0.52 2,0 3.6,-0.64 1.64,-0.64 2.6,-1.84 1,-1.2 1,-2.96 0,-2.24 -1.72,-3.92 -1.68,-1.72 -5.48,-2.16 -4.88,-0.52 -7.68,-2.92 -2.76,-2.4 -2.76,-5.92 0,-2.6 1.4,-4.4 1.44,-1.84 3.88,-2.8 2.48,-0.96 5.56,-0.96 2.36,0 4.16,0.68 1.8,0.68 3.16,1.88 1.36,1.16 2.32,2.72 0.48,0.8 0.36,1.52 -0.08,0.72 -0.72,1.12 -0.72,0.4 -1.52,0.16 -0.8,-0.28 -1.2,-0.96 -0.6,-1.08 -1.52,-1.88 -0.92,-0.8 -2.2,-1.28 -1.24,-0.48 -2.96,-0.48 -3,-0.04 -5,1.2 -1.96,1.2 -1.96,3.6 0,1.28 0.64,2.4 0.68,1.08 2.32,1.92 1.68,0.8 4.68,1.12 4.84,0.56 7.4,2.96 2.6,2.4 2.6,6.28 0,2.24 -0.88,3.92 -0.88,1.68 -2.44,2.84 -1.52,1.12 -3.52,1.72 -1.96,0.56 -4.12,0.56 z"
         style="font-style:normal;font-variant:normal;font-weight:600;font-stretch:normal;font-family:Comfortaa;-inkscape-font-specification:'Comfortaa Semi-Bold'"
         id="path34"
         inkscape:connector-curvature="0" />
      <path
         d="m 223.43172,465.5546 q -0.84,0 -1.4,-0.52 -0.52,-0.56 -0.52,-1.4 v -27.4 q 0,-0.84 0.52,-1.36 0.56,-0.56 1.4,-0.56 h 8 q 2.96,0 5.28,1.32 2.32,1.32 3.6,3.64 1.28,2.28 1.28,5.32 0,2.96 -1.28,5.24 -1.28,2.24 -3.6,3.52 -2.32,1.28 -5.28,1.28 h -6.12 v 9 q 0,0.84 -0.52,1.4 -0.52,0.52 -1.36,0.52 z m 1.88,-14.48 h 6.12 q 1.88,0 3.36,-0.8 1.48,-0.84 2.28,-2.32 0.84,-1.48 0.84,-3.36 0,-2 -0.84,-3.48 -0.8,-1.52 -2.28,-2.36 -1.48,-0.88 -3.36,-0.88 h -6.12 z"
         style="font-style:normal;font-variant:normal;font-weight:600;font-stretch:normal;font-family:Comfortaa;-inkscape-font-specification:'Comfortaa Semi-Bold'"
         id="path36"
         inkscape:connector-curvature="0" />
      <path
         d="m 243.70547,465.5546 q -1.04,0 -1.6,-0.88 -0.52,-0.92 -0.08,-1.88 l 11.4,-27.2 q 0.56,-1.28 1.8,-1.28 1.32,0 1.8,1.28 l 11.48,27.28 q 0.4,1 -0.16,1.84 -0.52,0.84 -1.56,0.84 -0.56,0 -1.08,-0.28 -0.48,-0.32 -0.72,-0.88 l -10.28,-25.32 h 1.16 l -10.4,25.32 q -0.24,0.56 -0.76,0.88 -0.48,0.28 -1,0.28 z m 2.28,-7.08 1.48,-3.16 h 15.88 l 1.44,3.16 z"
         style="font-style:normal;font-variant:normal;font-weight:600;font-stretch:normal;font-family:Comfortaa;-inkscape-font-specification:'Comfortaa Semi-Bold'"
         id="path38"
         inkscape:connector-curvature="0" />
      <path
         d="m 286.44922,465.9546 q -3.24,0 -6.08,-1.2 -2.8,-1.24 -4.92,-3.44 -2.08,-2.2 -3.28,-5.12 -1.2,-2.92 -1.2,-6.28 0,-3.32 1.16,-6.2 1.2,-2.92 3.32,-5.12 2.12,-2.2 4.92,-3.44 2.8,-1.24 6.08,-1.24 3.04,0 5.28,0.84 2.28,0.8 4.52,2.64 0.32,0.24 0.44,0.56 0.16,0.28 0.12,0.56 0,0.28 -0.08,0.6 -0.04,0.6 -0.52,1 -0.44,0.36 -1.12,0.4 -0.64,0.04 -1.24,-0.44 -1.52,-1.32 -3.2,-2 -1.64,-0.68 -4.2,-0.68 -2.44,0 -4.6,1 -2.12,1 -3.76,2.72 -1.6,1.72 -2.52,4 -0.92,2.24 -0.92,4.8 0,2.6 0.92,4.88 0.92,2.28 2.52,4 1.64,1.72 3.76,2.68 2.16,0.96 4.6,0.96 2.12,0 3.96,-0.68 1.88,-0.72 3.6,-2 0.64,-0.48 1.28,-0.4 0.64,0.04 1.08,0.52 0.48,0.44 0.48,1.24 0,0.4 -0.16,0.76 -0.12,0.32 -0.44,0.6 -2.12,1.8 -4.6,2.64 -2.48,0.84 -5.2,0.84 z"
         style="font-style:normal;font-variant:normal;font-weight:600;font-stretch:normal;font-family:Comfortaa;-inkscape-font-specification:'Comfortaa Semi-Bold'"
         id="path40"
         inkscape:connector-curvature="0" />
      <path
         d="m 305.38484,465.5546 q -0.84,0 -1.4,-0.52 -0.52,-0.56 -0.52,-1.4 v -27.4 q 0,-0.84 0.52,-1.36 0.56,-0.56 1.4,-0.56 h 18.28 q 0.84,0 1.36,0.52 0.52,0.48 0.52,1.28 0,0.76 -0.52,1.28 -0.52,0.48 -1.36,0.48 h -16.4 v 10.16 h 11.84 q 0.84,0 1.36,0.52 0.52,0.48 0.52,1.28 0,0.76 -0.52,1.28 -0.52,0.48 -1.36,0.48 h -11.84 v 10.4 h 16.4 q 0.84,0 1.36,0.52 0.52,0.48 0.52,1.24 0,0.8 -0.52,1.32 -0.52,0.48 -1.36,0.48 z"
         style="font-style:normal;font-variant:normal;font-weight:600;font-stretch:normal;font-family:Comfortaa;-inkscape-font-specification:'Comfortaa Semi-Bold'"
         id="path42"
         inkscape:connector-curvature="0" />
      <path
         d="m 344.99422,465.5546 q -0.84,0 -1.4,-0.52 -0.52,-0.56 -0.52,-1.4 v -27.4 q 0,-0.84 0.52,-1.36 0.56,-0.56 1.4,-0.56 h 8 q 2.96,0 5.28,1.32 2.32,1.32 3.6,3.64 1.28,2.28 1.28,5.32 0,2.96 -1.28,5.24 -1.28,2.24 -3.6,3.52 -2.32,1.28 -5.28,1.28 h -6.12 v 9 q 0,0.84 -0.52,1.4 -0.52,0.52 -1.36,0.52 z m 1.88,-14.48 h 6.12 q 1.88,0 3.36,-0.8 1.48,-0.84 2.28,-2.32 0.84,-1.48 0.84,-3.36 0,-2 -0.84,-3.48 -0.8,-1.52 -2.28,-2.36 -1.48,-0.88 -3.36,-0.88 h -6.12 z"
         style="font-style:normal;font-variant:normal;font-weight:600;font-stretch:normal;font-family:Comfortaa;-inkscape-font-specification:'Comfortaa Semi-Bold'"
         id="path44"
         inkscape:connector-curvature="0" />
      <path
         d="m 382.27984,465.9546 q -3.52,0 -6.44,-1.16 -2.92,-1.2 -5.04,-3.36 -2.08,-2.16 -3.28,-5.08 -1.16,-2.92 -1.16,-6.44 0,-3.48 1.16,-6.4 1.2,-2.92 3.28,-5.08 2.12,-2.16 5.04,-3.32 2.92,-1.2 6.44,-1.2 3.48,0 6.4,1.2 2.92,1.16 5.04,3.32 2.12,2.16 3.28,5.08 1.2,2.92 1.2,6.4 0,3.52 -1.2,6.44 -1.16,2.92 -3.28,5.08 -2.12,2.16 -5.04,3.36 -2.92,1.16 -6.4,1.16 z m 0,-3.48 q 2.64,0 4.88,-0.96 2.24,-0.96 3.88,-2.64 1.68,-1.72 2.56,-4 0.88,-2.28 0.88,-4.96 0,-2.64 -0.88,-4.92 -0.88,-2.32 -2.56,-4 -1.64,-1.72 -3.88,-2.64 -2.24,-0.96 -4.88,-0.96 -2.68,0 -4.92,0.96 -2.24,0.92 -3.88,2.64 -1.6,1.68 -2.52,4 -0.92,2.28 -0.92,4.92 0,2.68 0.92,4.96 0.92,2.28 2.52,4 1.64,1.68 3.88,2.64 2.24,0.96 4.92,0.96 z"
         style="font-style:normal;font-variant:normal;font-weight:600;font-stretch:normal;font-family:Comfortaa;-inkscape-font-specification:'Comfortaa Semi-Bold'"
         id="path46"
         inkscape:connector-curvature="0" />
      <path
         d="m 406.63484,465.5546 q -0.84,0 -1.4,-0.52 -0.52,-0.56 -0.52,-1.4 v -27.4 q 0,-0.84 0.52,-1.36 0.56,-0.56 1.4,-0.56 h 7.28 q 2.96,0 5.28,1.24 2.32,1.24 3.6,3.44 1.32,2.2 1.32,5.08 0,2.72 -1.32,4.84 -1.28,2.12 -3.6,3.32 -2.32,1.2 -5.28,1.2 h -5.4 v 10.2 q 0,0.84 -0.52,1.4 -0.52,0.52 -1.36,0.52 z m 16.64,0 q -0.56,0 -0.96,-0.2 -0.4,-0.24 -0.72,-0.72 l -7.36,-11.84 3.76,-1.04 6.76,10.88 q 0.68,1.08 0.2,2 -0.48,0.92 -1.68,0.92 z m -14.76,-15.68 h 5.4 q 1.92,0 3.36,-0.72 1.48,-0.76 2.32,-2.08 0.84,-1.32 0.84,-3 0,-1.8 -0.84,-3.2 -0.84,-1.44 -2.32,-2.2 -1.44,-0.8 -3.36,-0.8 h -5.4 z"
         style="font-style:normal;font-variant:normal;font-weight:600;font-stretch:normal;font-family:Comfortaa;-inkscape-font-specification:'Comfortaa Semi-Bold'"
         id="path48"
         inkscape:connector-curvature="0" />
      <path
         d="m 438.95297,465.5546 q -0.76,0 -1.32,-0.56 -0.56,-0.56 -0.56,-1.36 v -29.32 h 3.8 v 29.32 q 0,0.8 -0.56,1.36 -0.52,0.56 -1.36,0.56 z m -10.8,-27.72 q -0.8,0 -1.28,-0.48 -0.48,-0.52 -0.48,-1.28 0,-0.8 0.48,-1.28 0.48,-0.48 1.28,-0.48 h 21.64 q 0.8,0 1.28,0.48 0.48,0.48 0.48,1.28 0,0.76 -0.48,1.28 -0.48,0.48 -1.28,0.48 z"
         style="font-style:normal;font-variant:normal;font-weight:600;font-stretch:normal;font-family:Comfortaa;-inkscape-font-specification:'Comfortaa Semi-Bold'"
         id="path50"
         inkscape:connector-curvature="0" />
    </g>
  </g>
</svg>
