<?xml version="1.0" encoding="UTF-8" standalone="no"?>
<!-- Created with Inkscape (http://www.inkscape.org/) -->

<svg
   width="112.97911mm"
   height="8.5714159mm"
   viewBox="0 0 112.97911 8.5714159"
   version="1.1"
   id="svg8"
   inkscape:version="1.2.2 (b0a8486541, 2022-12-01)"
   sodipodi:docname="logo-long.svg"
   xmlns:inkscape="http://www.inkscape.org/namespaces/inkscape"
   xmlns:sodipodi="http://sodipodi.sourceforge.net/DTD/sodipodi-0.dtd"
   xmlns="http://www.w3.org/2000/svg"
   xmlns:svg="http://www.w3.org/2000/svg"
   xmlns:rdf="http://www.w3.org/1999/02/22-rdf-syntax-ns#"
   xmlns:cc="http://creativecommons.org/ns#"
   xmlns:dc="http://purl.org/dc/elements/1.1/">
  <defs
     id="defs2" />
  <sodipodi:namedview
     id="base"
     pagecolor="#ffffff"
     bordercolor="#666666"
     borderopacity="1.0"
     inkscape:pageopacity="0.0"
     inkscape:pageshadow="2"
     inkscape:zoom="3.959798"
     inkscape:cx="199.88393"
     inkscape:cy="3.2829957"
     inkscape:document-units="mm"
     inkscape:current-layer="text359-7"
     showgrid="false"
     inkscape:window-width="3440"
     inkscape:window-height="1371"
     inkscape:window-x="0"
     inkscape:window-y="0"
     inkscape:window-maximized="1"
     fit-margin-top="0"
     fit-margin-left="0"
     fit-margin-right="0"
     fit-margin-bottom="0"
     inkscape:showpageshadow="2"
     inkscape:pagecheckerboard="0"
     inkscape:deskcolor="#d1d1d1" />
  <metadata
     id="metadata5">
    <rdf:RDF>
      <cc:Work
         rdf:about="">
        <dc:format>image/svg+xml</dc:format>
        <dc:type
           rdf:resource="http://purl.org/dc/dcmitype/StillImage" />
      </cc:Work>
    </rdf:RDF>
  </metadata>
  <g
     inkscape:label="Layer 1"
     inkscape:groupmode="layer"
     id="layer1"
     transform="translate(-13.153719,-114.71497)">
    <g
       aria-label="PROTOSPACE PORTAL"
       transform="scale(0.26458333)"
       style="font-style:normal;font-weight:normal;font-size:40px;line-height:1.25;font-family:sans-serif;letter-spacing:0px;word-spacing:0px;fill:#000000;fill-opacity:1;stroke:none"
       id="flowRoot10">
      <path
         d="m 51.274844,465.5546 q -0.68,0 -1.12,-0.44 -0.44,-0.44 -0.44,-1.12 v -28.12 q 0,-0.68 0.44,-1.12 0.44,-0.44 1.12,-0.44 h 8 q 2.96,0 5.24,1.32 2.28,1.28 3.56,3.56 1.28,2.28 1.28,5.28 0,2.92 -1.28,5.2 -1.28,2.24 -3.56,3.56 -2.28,1.28 -5.24,1.28 h -6.44 v 9.48 q 0,0.68 -0.44,1.12 -0.44,0.44 -1.12,0.44 z m 1.56,-14.04 h 6.44 q 2.04,0 3.64,-0.88 1.6,-0.92 2.48,-2.52 0.92,-1.6 0.92,-3.64 0,-2.12 -0.92,-3.72 -0.88,-1.6 -2.48,-2.52 -1.6,-0.92 -3.64,-0.92 h -6.44 z"
         style="fill:#999999"
         id="path24"
         inkscape:connector-curvature="0" />
      <path
         d="m 75.727969,465.5546 q -0.68,0 -1.12,-0.44 -0.44,-0.44 -0.44,-1.12 v -28.12 q 0,-0.68 0.44,-1.12 0.44,-0.44 1.12,-0.44 h 7.48 q 2.92,0 5.2,1.24 2.28,1.2 3.56,3.4 1.32,2.16 1.32,5 0,2.72 -1.32,4.84 -1.28,2.12 -3.56,3.32 -2.28,1.2 -5.2,1.2 h -5.92 v 10.68 q 0,0.68 -0.44,1.12 -0.44,0.44 -1.12,0.44 z m 16.72,0 q -0.52,0 -0.84,-0.2 -0.28,-0.2 -0.52,-0.6 l -7.68,-12.24 3.12,-0.8 7.16,11.44 q 0.6,0.96 0.2,1.68 -0.36,0.72 -1.44,0.72 z m -15.16,-15.24 h 5.92 q 2.04,0 3.6,-0.8 1.6,-0.84 2.52,-2.28 0.92,-1.44 0.92,-3.28 0,-1.96 -0.92,-3.44 -0.92,-1.52 -2.52,-2.36 -1.56,-0.84 -3.6,-0.84 h -5.92 z"
         style="fill:#999999"
         id="path26"
         inkscape:connector-curvature="0" />
      <path
         d="m 113.29547,465.9546 q -3.48,0 -6.4,-1.2 -2.92,-1.2 -5.08,-3.36 -2.120001,-2.16 -3.320001,-5.08 -1.16,-2.92 -1.16,-6.4 0,-3.44 1.16,-6.36 1.2,-2.92 3.320001,-5.08 2.16,-2.16 5.08,-3.36 2.92,-1.2 6.4,-1.2 3.44,0 6.36,1.2 2.92,1.2 5.08,3.36 2.16,2.16 3.32,5.08 1.2,2.92 1.2,6.36 0,3.48 -1.2,6.4 -1.16,2.92 -3.32,5.08 -2.16,2.16 -5.08,3.36 -2.92,1.2 -6.36,1.2 z m 0,-2.96 q 2.76,0 5.12,-0.96 2.36,-1 4.08,-2.76 1.76,-1.8 2.72,-4.16 0.96,-2.4 0.96,-5.2 0,-2.76 -0.96,-5.12 -0.96,-2.4 -2.72,-4.16 -1.72,-1.8 -4.08,-2.76 -2.36,-1 -5.12,-1 -2.8,0 -5.16,1 -2.36,0.96 -4.12,2.76 -1.72,1.76 -2.68,4.16 -0.96,2.36 -0.96,5.12 0,2.8 0.96,5.2 0.96,2.36 2.68,4.16 1.76,1.76 4.12,2.76 2.36,0.96 5.16,0.96 z"
         style="fill:#999999"
         id="path28"
         inkscape:connector-curvature="0" />
      <path
         d="m 142.38859,465.5546 q -0.64,0 -1.12,-0.44 -0.44,-0.48 -0.44,-1.12 v -29.68 h 3.12 v 29.68 q 0,0.64 -0.44,1.12 -0.44,0.44 -1.12,0.44 z m -11.04,-28.4 q -0.64,0 -1.04,-0.4 -0.4,-0.4 -0.4,-1 0,-0.64 0.4,-1.04 0.4,-0.4 1.04,-0.4 h 22.12 q 0.64,0 1.04,0.4 0.4,0.4 0.4,1.04 0,0.6 -0.4,1 -0.4,0.4 -1.04,0.4 z"
         style="fill:#999999"
         id="path30"
         inkscape:connector-curvature="0" />
      <path
         d="m 171.88922,465.9546 q -3.48,0 -6.4,-1.2 -2.92,-1.2 -5.08,-3.36 -2.12,-2.16 -3.32,-5.08 -1.16,-2.92 -1.16,-6.4 0,-3.44 1.16,-6.36 1.2,-2.92 3.32,-5.08 2.16,-2.16 5.08,-3.36 2.92,-1.2 6.4,-1.2 3.44,0 6.36,1.2 2.92,1.2 5.08,3.36 2.16,2.16 3.32,5.08 1.2,2.92 1.2,6.36 0,3.48 -1.2,6.4 -1.16,2.92 -3.32,5.08 -2.16,2.16 -5.08,3.36 -2.92,1.2 -6.36,1.2 z m 0,-2.96 q 2.76,0 5.12,-0.96 2.36,-1 4.08,-2.76 1.76,-1.8 2.72,-4.16 0.96,-2.4 0.96,-5.2 0,-2.76 -0.96,-5.12 -0.96,-2.4 -2.72,-4.16 -1.72,-1.8 -4.08,-2.76 -2.36,-1 -5.12,-1 -2.8,0 -5.16,1 -2.36,0.96 -4.12,2.76 -1.72,1.76 -2.68,4.16 -0.96,2.36 -0.96,5.12 0,2.8 0.96,5.2 0.96,2.36 2.68,4.16 1.76,1.76 4.12,2.76 2.36,0.96 5.16,0.96 z"
         style="fill:#999999"
         id="path32"
         inkscape:connector-curvature="0" />
      <path
         d="m 204.12422,465.9546 q -2.56,0 -4.84,-0.76 -2.24,-0.8 -3.92,-2.2 -1.68,-1.44 -2.52,-3.28 -0.36,-0.76 0,-1.4 0.4,-0.68 1.32,-0.88 0.64,-0.16 1.28,0.2 0.68,0.32 1,1 0.52,1.08 1.64,1.96 1.12,0.84 2.68,1.36 1.6,0.52 3.36,0.52 2,0 3.6,-0.64 1.64,-0.64 2.6,-1.84 1,-1.2 1,-2.96 0,-2.24 -1.72,-3.92 -1.68,-1.72 -5.48,-2.16 -4.88,-0.52 -7.68,-2.92 -2.76,-2.4 -2.76,-5.92 0,-2.6 1.4,-4.4 1.44,-1.84 3.88,-2.8 2.48,-0.96 5.56,-0.96 2.36,0 4.16,0.68 1.8,0.68 3.16,1.88 1.36,1.16 2.32,2.72 0.48,0.8 0.36,1.52 -0.08,0.72 -0.72,1.12 -0.72,0.4 -1.52,0.16 -0.8,-0.28 -1.2,-0.96 -0.6,-1.08 -1.52,-1.88 -0.92,-0.8 -2.2,-1.28 -1.24,-0.48 -2.96,-0.48 -3,-0.04 -5,1.2 -1.96,1.2 -1.96,3.6 0,1.28 0.64,2.4 0.68,1.08 2.32,1.92 1.68,0.8 4.68,1.12 4.84,0.56 7.4,2.96 2.6,2.4 2.6,6.28 0,2.24 -0.88,3.92 -0.88,1.68 -2.44,2.84 -1.52,1.12 -3.52,1.72 -1.96,0.56 -4.12,0.56 z"
         style="font-style:normal;font-variant:normal;font-weight:600;font-stretch:normal;font-family:Comfortaa;-inkscape-font-specification:'Comfortaa Semi-Bold'"
         id="path34"
         inkscape:connector-curvature="0" />
      <path
         d="m 223.43172,465.5546 q -0.84,0 -1.4,-0.52 -0.52,-0.56 -0.52,-1.4 v -27.4 q 0,-0.84 0.52,-1.36 0.56,-0.56 1.4,-0.56 h 8 q 2.96,0 5.28,1.32 2.32,1.32 3.6,3.64 1.28,2.28 1.28,5.32 0,2.96 -1.28,5.24 -1.28,2.24 -3.6,3.52 -2.32,1.28 -5.28,1.28 h -6.12 v 9 q 0,0.84 -0.52,1.4 -0.52,0.52 -1.36,0.52 z m 1.88,-14.48 h 6.12 q 1.88,0 3.36,-0.8 1.48,-0.84 2.28,-2.32 0.84,-1.48 0.84,-3.36 0,-2 -0.84,-3.48 -0.8,-1.52 -2.28,-2.36 -1.48,-0.88 -3.36,-0.88 h -6.12 z"
         style="font-style:normal;font-variant:normal;font-weight:600;font-stretch:normal;font-family:Comfortaa;-inkscape-font-specification:'Comfortaa Semi-Bold'"
         id="path36"
         inkscape:connector-curvature="0" />
      <path
         d="m 243.70547,465.5546 q -1.04,0 -1.6,-0.88 -0.52,-0.92 -0.08,-1.88 l 11.4,-27.2 q 0.56,-1.28 1.8,-1.28 1.32,0 1.8,1.28 l 11.48,27.28 q 0.4,1 -0.16,1.84 -0.52,0.84 -1.56,0.84 -0.56,0 -1.08,-0.28 -0.48,-0.32 -0.72,-0.88 l -10.28,-25.32 h 1.16 l -10.4,25.32 q -0.24,0.56 -0.76,0.88 -0.48,0.28 -1,0.28 z m 2.28,-7.08 1.48,-3.16 h 15.88 l 1.44,3.16 z"
         style="font-style:normal;font-variant:normal;font-weight:600;font-stretch:normal;font-family:Comfortaa;-inkscape-font-specification:'Comfortaa Semi-Bold'"
         id="path38"
         inkscape:connector-curvature="0" />
      <path
         d="m 286.44922,465.9546 q -3.24,0 -6.08,-1.2 -2.8,-1.24 -4.92,-3.44 -2.08,-2.2 -3.28,-5.12 -1.2,-2.92 -1.2,-6.28 0,-3.32 1.16,-6.2 1.2,-2.92 3.32,-5.12 2.12,-2.2 4.92,-3.44 2.8,-1.24 6.08,-1.24 3.04,0 5.28,0.84 2.28,0.8 4.52,2.64 0.32,0.24 0.44,0.56 0.16,0.28 0.12,0.56 0,0.28 -0.08,0.6 -0.04,0.6 -0.52,1 -0.44,0.36 -1.12,0.4 -0.64,0.04 -1.24,-0.44 -1.52,-1.32 -3.2,-2 -1.64,-0.68 -4.2,-0.68 -2.44,0 -4.6,1 -2.12,1 -3.76,2.72 -1.6,1.72 -2.52,4 -0.92,2.24 -0.92,4.8 0,2.6 0.92,4.88 0.92,2.28 2.52,4 1.64,1.72 3.76,2.68 2.16,0.96 4.6,0.96 2.12,0 3.96,-0.68 1.88,-0.72 3.6,-2 0.64,-0.48 1.28,-0.4 0.64,0.04 1.08,0.52 0.48,0.44 0.48,1.24 0,0.4 -0.16,0.76 -0.12,0.32 -0.44,0.6 -2.12,1.8 -4.6,2.64 -2.48,0.84 -5.2,0.84 z"
         style="font-style:normal;font-variant:normal;font-weight:600;font-stretch:normal;font-family:Comfortaa;-inkscape-font-specification:'Comfortaa Semi-Bold'"
         id="path40"
         inkscape:connector-curvature="0" />
      <path
         d="m 305.38484,465.5546 q -0.84,0 -1.4,-0.52 -0.52,-0.56 -0.52,-1.4 v -27.4 q 0,-0.84 0.52,-1.36 0.56,-0.56 1.4,-0.56 h 18.28 q 0.84,0 1.36,0.52 0.52,0.48 0.52,1.28 0,0.76 -0.52,1.28 -0.52,0.48 -1.36,0.48 h -16.4 v 10.16 h 11.84 q 0.84,0 1.36,0.52 0.52,0.48 0.52,1.28 0,0.76 -0.52,1.28 -0.52,0.48 -1.36,0.48 h -11.84 v 10.4 h 16.4 q 0.84,0 1.36,0.52 0.52,0.48 0.52,1.24 0,0.8 -0.52,1.32 -0.52,0.48 -1.36,0.48 z"
         style="font-style:normal;font-variant:normal;font-weight:600;font-stretch:normal;font-family:Comfortaa;-inkscape-font-specification:'Comfortaa Semi-Bold'"
         id="path42"
         inkscape:connector-curvature="0" />
      <g
         aria-label="GUIDE"
         transform="scale(0.98411791,1.0161384)"
         id="text359-7"
         style="font-size:43.3553px;stroke-width:1.01614">
        <path
           d="m 379.30256,428.94757 q -0.38105,0.4869 -0.93146,0.95263 -0.46573,0.40223 -1.16433,0.84679 -0.67743,0.44456 -1.58772,0.80444 0.29638,-0.38105 0.0423,-0.80444 -0.23286,-0.44456 -1.05848,-0.80445 -0.82561,-0.35988 -2.24397,-0.59275 -1.3972,-0.23286 -3.42947,-0.23286 -1.1855,0 -2.56152,0.25403 -1.35486,0.23287 -2.68854,0.82562 -1.33368,0.59275 -2.58269,1.58772 -1.22784,0.9738 -2.18047,2.45567 -0.95263,1.4607 -1.52421,3.49298 -0.55041,2.01111 -0.55041,4.65731 0,2.64619 0.63509,4.6573 0.65626,2.01111 1.71474,3.47182 1.07965,1.43953 2.45567,2.41333 1.37602,0.95263 2.81555,1.54538 1.43954,0.57158 2.81556,0.80444 1.39719,0.23287 2.51918,0.23287 0.84678,0 1.82058,-0.0847 0.82562,-0.0635 1.88409,-0.2117 1.05848,-0.14818 2.20164,-0.44456 0.29637,-0.31754 0.46573,-0.65626 0.16936,-0.35988 0.27521,-0.65625 0.10584,-0.33872 0.16935,-0.67743 0.12702,-2.18047 0.10585,-4.31859 -0.0212,-2.13813 -0.0212,-4.29743 -0.59275,-0.0635 -1.27017,-0.12702 -0.67743,-0.0635 -1.33369,-0.0635 -0.52924,0 -0.9738,0.0423 -0.42339,0.0423 -0.7621,0.19053 1.20666,-0.74093 2.05345,-1.14316 0.84678,-0.42339 1.39719,-0.65625 0.63509,-0.25404 1.05848,-0.33872 0.46573,-0.0635 1.14316,-0.10585 0.69859,-0.0423 1.41836,-0.0635 0.74093,-0.0423 1.43953,-0.0847 0.71976,-0.0635 1.249,-0.16936 l -1.48187,1.03731 q -0.0423,2.20164 -0.10584,3.68351 -0.0423,1.4607 -0.0847,2.34982 -0.0635,1.03731 -0.10585,1.65123 -0.0212,0.69859 -0.25404,1.33368 -0.21169,0.63509 -0.69859,1.24901 -0.46573,0.59275 -1.24901,1.18549 -0.7621,0.59275 -1.86292,1.20667 -1.71474,1.14316 -3.17544,1.75707 -1.4607,0.61392 -2.54035,0.9103 -1.27017,0.33871 -2.30748,0.40222 -3.1331,0 -5.90631,-0.91029 -2.77322,-0.93146 -4.86901,-2.66737 -2.07462,-1.75708 -3.28128,-4.29743 -1.20667,-2.54034 -1.20667,-5.77929 0,-2.01111 0.38105,-3.72585 0.38106,-1.7359 0.99497,-3.17543 0.63509,-1.43954 1.41837,-2.58269 0.78327,-1.16433 1.58771,-2.03228 0.82562,-0.88912 1.58772,-1.48187 0.78328,-0.59275 1.35486,-0.91029 0.5504,-0.31755 1.39719,-0.71977 0.86795,-0.40222 1.88409,-0.80444 1.03731,-0.4234 2.18047,-0.82562 1.14315,-0.40222 2.32865,-0.71976 1.1855,-0.31755 2.30749,-0.50807 1.14315,-0.19053 2.15929,-0.19053 2.26515,0 3.66234,0.2117 1.39719,0.21169 2.11696,0.52924 0.74093,0.29637 0.91029,0.61391 0.19053,0.31755 0.0423,0.50807 z"
           style="font-style:italic;font-family:Quintessential;-inkscape-font-specification:'Quintessential Italic'"
           id="path437" />
        <path
           d="m 394.94688,427.4657 q -0.84678,0.59275 -1.88409,1.24901 -1.01614,0.65625 -1.96877,1.05848 -0.0847,2.7097 -0.14819,4.93251 -0.0423,2.2228 -0.10585,4.02222 -0.0423,1.77824 -0.0635,3.15427 -0.0212,1.37602 -0.0423,2.41333 -0.0423,2.41333 -0.0212,3.68351 -0.0423,1.50304 0.42339,2.9214 0.46574,1.41836 1.50305,2.54035 1.05847,1.12199 2.75204,1.79941 1.69357,0.67743 4.1069,0.67743 1.31251,-0.0423 2.73088,-0.38105 1.20666,-0.29638 2.66736,-0.88913 1.4607,-0.59274 2.8579,-1.7359 v -22.88432 q -0.29638,-0.0423 -0.61392,-0.0423 -0.31755,0 -0.61392,0 -0.59275,0 -1.1855,0.0423 -0.57158,0.0212 -1.05848,0.0847 0.99497,-0.88912 1.75708,-1.35485 0.78327,-0.46573 1.33368,-0.6986 0.63509,-0.25403 1.10082,-0.29637 0.40222,0 1.01614,0 0.61392,-0.0212 1.29135,-0.0423 0.69859,-0.0212 1.39719,-0.0423 0.71976,-0.0423 1.31251,-0.0635 0.61392,-0.0423 1.03731,-0.0635 0.44456,-0.0423 0.59275,-0.0847 -0.74094,0.52924 -1.6724,1.12199 -0.91029,0.57158 -1.75707,0.95263 v 21.82584 q -0.0212,1.03731 -0.12702,1.92643 -0.10585,0.76211 -0.29637,1.50304 -0.16936,0.71977 -0.52924,0.99497 1.18549,0.16936 2.09579,0.2117 0.91029,0.0423 1.58771,0.0423 1.20667,0 1.73591,-0.0847 0.52924,-0.0847 0.59275,-0.12702 -0.99497,0.57158 -1.82059,0.99497 -0.82561,0.40222 -1.56655,0.67743 -0.71976,0.25403 -1.41836,0.40222 -0.67742,0.12702 -1.37602,0.12702 h -4.12807 q 0.4869,-0.16936 0.74094,-0.74094 0.2752,-0.57158 0.40222,-1.1855 0.14819,-0.69859 0.16936,-1.54537 v -0.99498 q -2.24398,1.82059 -4.27626,2.79439 -2.03228,0.9738 -3.62,1.41836 -1.84175,0.52924 -3.47181,0.59275 -2.66737,0 -4.48795,-0.6986 -1.79941,-0.71976 -2.90023,-1.98994 -1.07965,-1.27017 -1.54538,-3.04842 -0.44456,-1.77824 -0.38105,-3.91637 -0.0212,-1.75707 0.0212,-4.42444 0.0212,-2.28632 0.0635,-5.80047 0.0635,-3.53532 0.16936,-8.51017 h -0.95263 q -0.59275,0 -1.1855,0.0423 -0.59275,0.0212 -1.07965,0.0847 0.99497,-0.88912 1.75708,-1.35485 0.78327,-0.46573 1.33368,-0.6986 0.63509,-0.25403 1.12199,-0.29637 0.40222,0 1.01614,0 0.61392,-0.0212 1.29135,-0.0423 0.69859,-0.0212 1.39719,-0.0423 0.71976,-0.0423 1.31251,-0.0635 0.61392,-0.0423 1.03731,-0.0635 0.42339,-0.0423 0.57158,-0.0847 z m 21.80467,28.36724 v -0.0212 h 0.0212 q 0.0212,-0.0212 0.0423,-0.0212 z"
           style="font-style:italic;font-family:Quintessential;-inkscape-font-specification:'Quintessential Italic'"
           id="path434" />
        <path
           d="m 429.36862,455.3037 q -1.14316,0.76211 -1.88409,1.31251 -0.74094,0.55041 -1.35486,0.9103 -0.59275,0.33871 -1.16432,0.50807 -0.55041,0.16935 -1.31252,0.16935 -1.01614,0 -1.7359,-0.0847 -0.71977,-0.0847 -1.43954,-0.0847 -0.35988,0 -0.74093,0.0212 -0.35988,0.0423 -0.80445,0.14818 0.59275,-0.50807 1.07965,-1.10082 0.4869,-0.59274 0.82562,-1.4607 0.35988,-0.86795 0.55041,-2.07462 0.19052,-1.22783 0.19052,-2.94257 v -21.38127 q -0.65625,0.0635 -1.58772,0.16935 -0.93146,0.10585 -2.11695,0.27521 1.14315,-0.93146 2.05345,-1.41836 0.93146,-0.4869 1.58771,-0.71977 0.76211,-0.25403 1.35486,-0.29637 0.74093,0.0212 1.63005,-0.0212 0.9103,-0.0423 1.73591,-0.10585 0.84678,-0.0847 1.54538,-0.19053 0.6986,-0.12701 1.03731,-0.25403 -0.99497,0.65625 -1.79942,1.12199 -0.78327,0.44456 -1.50304,0.74093 -0.10584,3.83169 -0.19052,6.85894 -0.0635,3.02725 -0.12702,5.37708 -0.0423,2.32865 -0.0847,4.04339 -0.0212,1.69356 -0.0423,2.90023 -0.0635,2.81555 -0.0423,3.85286 -0.0212,0.78328 -0.21169,1.54538 -0.16936,0.67743 -0.50807,1.43954 -0.33871,0.74093 -0.9738,1.35485 0.40222,0.0423 0.78327,0.0423 0.38105,0 0.74094,0 1.07965,0 1.90526,-0.0847 0.84678,-0.10585 1.41836,-0.23287 0.67743,-0.14818 1.1855,-0.33871 z"
           style="font-style:italic;font-family:Quintessential;-inkscape-font-specification:'Quintessential Italic'"
           id="path431" />
        <path
           d="m 461.05948,441.0354 q 0,2.62503 -0.88912,4.91135 -0.86795,2.26514 -2.37099,4.1704 -1.48187,1.8841 -3.47182,3.36597 -1.98994,1.4607 -4.23391,2.47684 -2.22281,1.01614 -4.57263,1.54538 -2.32865,0.52924 -4.53029,0.52924 -0.2117,0.0212 -0.78328,0.0212 -0.5504,0 -1.29134,0 -0.74094,0.0212 -1.60889,0.0212 -0.86795,0 -1.69356,0 -0.82562,0 -1.54538,-0.0212 -0.71977,0 -1.1855,-0.0212 0.35988,0 0.63509,-0.19053 0.2752,-0.19053 0.46573,-0.50807 0.21169,-0.31754 0.33871,-0.71977 0.14819,-0.42339 0.25404,-0.84678 0.21169,-1.01614 0.25403,-2.28631 0,-1.56655 0.0423,-4.65731 0.0212,-1.31252 0.0423,-3.09076 0.0212,-1.79941 0.0635,-4.1069 0.0423,-2.32865 0.0847,-5.22888 0.0635,-2.90024 0.12701,-6.45673 -0.93146,0.10585 -1.86292,0.16936 -0.91029,0.0423 -1.92643,0 l 3.95871,-2.60386 q 0.9738,0.12702 2.01111,0.16936 1.03731,0.0423 2.05345,0.0423 1.86292,0 3.42947,-0.14819 1.58772,-0.14819 3.1331,-0.14819 1.39719,0 3.04842,0.23287 1.6724,0.21169 3.34479,0.80444 1.6724,0.57158 3.23895,1.54538 1.56655,0.9738 2.77321,2.49801 1.20667,1.50304 1.92644,3.62 0.74093,2.09579 0.74093,4.91134 z m -22.67262,11.15637 q -0.0635,0.65626 -0.2752,1.27018 -0.16936,0.52924 -0.50807,1.12198 -0.31755,0.59275 -0.86796,1.01614 2.94257,0.14819 4.84784,0.19053 1.90526,0.0423 3.04842,0.0423 2.9214,0 5.25005,-1.03731 2.32866,-1.05848 3.93754,-2.83672 1.63006,-1.79942 2.47685,-4.17041 0.86795,-2.37099 0.86795,-5.01719 0,-2.60386 -0.6986,-4.61497 -0.67742,-2.03228 -1.82058,-3.53532 -1.14316,-1.52421 -2.60386,-2.56152 -1.4607,-1.03731 -3.00608,-1.6724 -1.52421,-0.65625 -3.02725,-0.93146 -1.50304,-0.29637 -2.70971,-0.29637 -1.249,0 -2.32865,0.0847 -1.07965,0.0847 -2.09579,0.21169 -0.0635,3.85287 -0.12702,6.88012 -0.0423,3.00608 -0.0847,5.33473 -0.0423,2.30748 -0.0847,4.00105 -0.0423,1.6724 -0.0635,2.83673 -0.0847,2.73087 -0.12702,3.6835 z"
           style="font-style:italic;font-family:Quintessential;-inkscape-font-specification:'Quintessential Italic'"
           id="path428" />
        <path
           d="m 481.31877,441.43763 q -0.19053,0.0847 -0.57158,0.31754 -0.33871,0.21169 -0.9738,0.63509 -0.61392,0.40222 -1.63006,1.12198 0.16936,-0.31754 -0.0212,-0.4869 -0.16935,-0.16935 -0.46573,-0.23286 -0.35988,-0.0847 -0.84678,-0.0635 -0.76211,0.0635 -2.20164,0.14819 -1.41836,0.0847 -3.21777,0.14818 0,3.38714 -0.0423,5.52526 -0.0423,2.11696 -0.0635,3.30246 -0.0423,1.39719 -0.0847,2.05345 -0.0423,0.42339 -0.25403,0.82561 -0.16936,0.35988 -0.55041,0.76211 -0.35989,0.40222 -1.01614,0.71976 h 9.58982 q 0.67742,0 1.37602,-0.0847 0.59275,-0.0635 1.27017,-0.21169 0.67743,-0.14819 1.29135,-0.44456 -1.05848,0.99497 -2.09579,1.52421 -1.03731,0.52924 -1.90526,0.7621 -1.01614,0.27521 -1.92643,0.31755 -2.07462,0 -3.91638,0.0212 -1.84175,0.0212 -3.32362,0.0847 -1.48187,0.0635 -2.54035,0.14819 -1.03731,0.10585 -1.50304,0.23287 0.65626,-0.65626 1.01614,-1.29135 0.38105,-0.63509 0.57158,-1.41836 0.19052,-0.78327 0.23286,-1.75708 0.0635,-0.99497 0.0423,-2.34982 v -8.67953 q -0.61392,0 -1.20666,-0.0212 -0.57158,-0.0212 -1.12199,-0.0635 l 2.32865,-1.20666 q 0,-1.14316 -0.0212,-2.39216 0,-1.27018 0,-2.70971 0,-1.43953 -0.0212,-3.09076 0,-1.6724 0,-3.64117 -0.95263,0 -1.79941,-0.0212 -0.84678,-0.0212 -1.56655,-0.0635 l 3.93754,-2.09578 q 4.02222,0 6.85895,-0.0423 2.85789,-0.0635 4.72081,-0.12702 2.1593,-0.0847 3.59883,-0.16936 0.71977,0 0.95263,0.12702 0.23287,0.10585 0.19053,0.25404 -0.0423,0.12701 -0.25404,0.2752 -0.21169,0.14819 -0.38105,0.2117 -0.16936,0.0847 -0.63509,0.35988 -0.40222,0.23286 -1.14315,0.74093 -0.71977,0.4869 -1.98994,1.33369 0.42339,-0.46573 0.35988,-0.67743 -0.0635,-0.23286 -0.29638,-0.33871 -0.2752,-0.10585 -0.7621,-0.10585 -0.40222,0.0423 -1.20667,0.0847 -0.80444,0.0212 -1.88409,0.0635 -1.05848,0.0423 -2.30748,0.0847 -1.24901,0.0423 -2.56152,0.0635 0.0212,3.38714 0.0212,6.07567 0.0212,2.68854 0.0212,4.93252 2.15929,-0.0212 3.87403,-0.0635 1.73591,-0.0635 2.96374,-0.12702 1.43953,-0.0847 2.56152,-0.14819 0.6986,-0.0212 0.93146,0.0847 0.23287,0.10585 0.19053,0.25404 -0.0423,0.14818 -0.25404,0.31754 -0.19052,0.14819 -0.33871,0.2117 z"
           style="font-style:italic;font-family:Quintessential;-inkscape-font-specification:'Quintessential Italic'"
           id="path425" />
      </g>
    </g>
  </g>
</svg>
